<svg width="144" height="104" viewBox="0 0 144 104" fill="none" xmlns="http://www.w3.org/2000/svg">
<path d="M102.35 30.6809C104.104 30.6811 104.573 32.1389 104.573 33.0755C104.572 35.2763 99.9907 41.7595 99.9907 44.9319C99.9907 45.6042 100.385 46.0852 101.148 46.0852C103.76 46.0849 108.096 40.7167 108.581 38.4104C107.522 37.8968 107.253 37.3577 107.253 36.5217C107.254 35.3914 107.921 34.4094 109.434 34.4094C110.744 34.4096 111.381 35.0842 111.381 35.0842C111.409 35.0762 112.998 34.6185 115.371 34.6184L115.356 34.6165C119.072 34.6165 123.396 35.7748 123.396 40.4026C123.395 61.5825 45.9567 67.5625 45.9565 79.6507C45.9565 80.5621 47.3792 82.0247 50.0366 82.0247C50.0743 82.712 49.1911 84.2029 47.8765 83.9768C45.6933 83.5991 44.1997 81.6724 44.1997 78.7844C44.2 62.1641 121.665 52.6187 121.665 40.5003C121.664 39.342 120.575 37.4466 114.937 37.4466C112.644 37.4466 111.333 37.9207 111.316 37.927C111.316 37.927 106.427 50.0383 98.6304 50.0383C97.4284 50.0382 95.6022 49.4486 95.6021 47.0647C95.6021 42.6459 100.117 37.0913 100.117 35.3489C100.117 34.9284 99.9531 34.6917 99.5767 34.6917C94.5303 34.692 88.4204 45.6926 88.4204 45.6926C86.2952 49.6982 84.1796 53.0515 83.3589 53.052C82.2323 53.052 81.5924 52.41 81.5923 51.4534C81.5923 50.9347 82.3873 48.9907 83.5415 46.4856C80.7888 49.877 77.4969 53.087 74.9048 53.0872C72.4707 53.0872 71.6245 51.4278 71.6245 50.0178C71.6245 49.4967 71.7201 48.8622 71.8882 48.1497C69.2684 51.6646 65.6249 55.3479 62.3101 55.3479C58.9952 55.3479 58.6108 52.5807 58.6108 51.1204C58.6112 47.2125 64.4304 40.591 64.4526 40.5657C64.4401 40.5741 63.7028 41.0666 62.2427 41.0667C61.4197 41.0667 60.3555 40.9008 59.4497 40.3772C57.8086 43.6226 54.6264 47.8647 48.8853 49.2044C50.303 50.3576 51.1733 52.2821 51.1733 55.1448C51.173 60.9308 44.2071 69.9317 32.2905 69.9319C22.296 69.9319 20.6041 60.7396 20.604 57.5618C20.604 43.7715 32.2274 33.6038 45.5522 33.6038C49.4594 33.6038 53.3716 34.8958 53.3716 38.7532C53.3715 40.2533 51.9848 41.3058 51.6831 41.4221C51.4422 41.5178 51.3691 41.2831 51.4067 41.1975C51.4744 41.039 51.5073 40.9078 51.5073 40.6839C51.507 39.5934 50.2313 37.0208 44.9146 37.0208C33.8961 37.021 25.7965 45.9617 25.7964 56.9846C25.7964 61.4563 28.1948 66.7872 34.0239 66.7874C39.0903 66.7874 46.182 62.5771 46.1821 54.7669C46.1821 50.0005 42.0089 49.6827 39.5347 49.9143C36.0316 50.3424 34.8222 51.1913 34.2651 51.9592C34.1823 52.0751 34.0515 52.0547 33.9536 51.9339C33.8309 51.7802 33.7603 51.4207 33.7603 51.1741C33.7603 49.7238 34.7321 45.3147 44.855 45.3147C53.0805 45.3146 56.5941 41.7391 58.0796 39.0022C57.7659 38.4332 57.5728 37.7207 57.5728 36.8294C57.5728 35.4798 58.7069 34.719 59.7407 34.719C60.7743 34.7192 61.1108 35.3468 61.1108 35.805C61.1108 36.2176 60.9897 36.3841 60.9897 36.3841C60.9909 36.4063 61.058 37.5724 62.897 37.5725C65.5895 37.5725 68.0894 35.6204 68.0894 35.6204C68.1058 35.5799 69.2331 32.8287 71.2456 32.8284C72.0711 32.8284 72.6986 33.8783 72.6987 34.7444C72.6987 36.6101 69.5845 38.3225 69.5845 38.3225C69.5542 38.361 63.605 45.9421 63.605 49.1467C63.605 50.1111 64.0744 50.6878 64.8423 50.6878C68.9301 50.6872 75.1909 40.1399 75.1909 40.1399C77.103 36.6 79.3289 33.6067 80.6187 33.6067C81.7076 33.6068 82.5884 34.3871 82.5884 35.3489C82.5883 36.6331 76.7134 44.4132 76.7134 47.1048C76.7134 47.5983 76.7644 48.1497 77.4771 48.1497C81.3076 48.149 88.1488 37.2053 88.1714 37.1692C90.0757 33.5542 91.7419 30.684 92.0962 30.6829C93.0874 30.6829 93.9712 31.1415 93.9712 32.7151C93.9712 33.3798 93.4186 34.9987 92.563 37.0481C95.3082 33.8706 98.9173 30.6809 102.35 30.6809ZM83.3892 28.0852C84.5084 27.68 86.4556 28.7777 86.4556 30.1751V30.177C86.4556 31.5843 84.5688 33.3651 83.3091 33.3655C82.7144 33.3655 81.1756 32.6652 81.1753 31.6985C81.1753 30.3464 82.3177 28.473 83.3892 28.0852Z" fill="black"/>
</svg>
